<svg xmlns="http://www.w3.org/2000/svg" id="LOGO_nagro" width="144" height="48" data-name="LOGO/nagro" viewBox="0 0 144 48">
    <defs>
        <style>
            .cls-1{fill:#1565c0}
        </style>
    </defs>
    <path id="LOGO_nagro-2" d="M13.428-101.81c-2.058.812-2.508 1.563-2.508 3.563v25.687c0 1.438.515 1.937 1.994 1.937h3.537c1.479 0 1.929-.5 1.929-1.937v-23.312a.6.6 0 0 1 .45-.625A23.281 23.281 0 0 1 25-97.31c4.695 0 7.01 2.062 7.01 6.125v18.625c0 1.438.45 1.937 1.929 1.937h3.537c1.479 0 1.994-.5 1.994-1.937v-18.812c0-8.063-4.373-12.563-13.377-12.563a34.4 34.4 0 0 0-12.665 2.125zm30.035 4.375c-.707 1.25-.322 2.187 1.093 2.812l2.573 1.063c1.479.5 1.8.375 2.766-.937q2.026-3 6.753-3c4.631 0 6.431 2.125 6.431 6.188v1.75c-3.666-.187-5.724-.312-6.174-.312-10.483 0-14.6 2.625-14.6 10.062 0 3.438 1.029 6 3.087 7.625 2.058 1.688 5.788 2.5 11.255 2.5 5.145 0 9-.562 11.577-1.625 1.8-.75 2.315-1.375 2.315-3.562V-91.06c0-8.562-4.566-12.875-13.763-12.875-6.56 0-10.998 2.188-13.313 6.5zM63.079-77.06c0 .438-.257.688-.707.875a33.563 33.563 0 0 1-6.431.5c-4.695 0-6.046-1.375-6.046-4.188 0-2.75 1.544-4.062 6.174-4.062.193 0 2.508.125 7.01.312zm11-6.687c0 8.063 4.373 12.562 13.377 12.562a31.187 31.187 0 0 0 7.718-1.125v3.125c0 4.5-2.251 6.75-6.817 6.75-3.087 0-5.338-1.062-6.689-3.187-1.029-1.313-1.736-1.5-3.28-.75l-2.446 1.312c-1.479.75-1.737 1.813-.772 3.125q3.666 6 13.313 6c9.711 0 14.149-5.062 14.149-13.625v-29c0-2-.322-2.5-2.38-3.437-2.894-1.312-6.817-1.937-11.641-1.937-9.711 0-14.535 4.375-14.535 13.125zm20.514-12.875a.847.847 0 0 1 .579.75v17.188a30.814 30.814 0 0 1-6.624.875c-4.566 0-7.01-2.188-7.01-6.125v-6.626c0-4.5 2.508-6.75 7.589-6.75a22.164 22.164 0 0 1 5.466.688zm26.819-7.313a39.1 39.1 0 0 0-11.962 1.875c-2.058.812-2.508 1.562-2.508 3.563v25.937c0 1.438.515 1.937 1.994 1.937h3.537c1.479 0 1.929-.5 1.929-1.937v-23.25a.665.665 0 0 1 .643-.75 21.663 21.663 0 0 1 6.11-.75h2.315c1.479 0 1.994-.5 1.994-1.938V-102c0-1.5-.515-1.937-1.994-1.937zm3.859 21.75c0 7.813 5.338 12.5 14.792 12.5 9.519 0 14.857-4.687 14.857-12.5v-9.25c0-7.812-5.338-12.5-14.857-12.5-9.454 0-14.792 4.688-14.792 12.5zm22.188 0c0 3.75-2.7 5.938-7.4 5.938s-7.332-2.187-7.332-5.937v-9.25c0-3.813 2.637-5.937 7.332-5.937s7.4 2.125 7.4 5.938z" class="cls-1" data-name="LOGO/nagro" transform="translate(-10.92 103.935)"/>
</svg>
